<svg id="Layer_1" data-name="Layer 1" xmlns="http://www.w3.org/2000/svg" xmlns:xlink="http://www.w3.org/1999/xlink" viewBox="0 0 41.9 36.07"><defs><style>.curve-1,.curve-3{fill:none;}.curve-2{clip-path:url(#clip-path);}.curve-3,.curve-4{stroke:#e94f54;stroke-miterlimit:10;stroke-width:1.22px;}.curve-4{fill:#e3e3eb;}</style><clipPath id="clip-path" transform="translate(-23.62 -26.98)"><rect class="curve-1" x="23.87" y="27.23" width="41.4" height="35.57"/></clipPath></defs><title>Produce</title><g id="Layer_2" data-name="Layer 2"><g class="curve-2"><path class="curve-3" d="M60.73,62.44H28.4a4.17,4.17,0,0,1-4.17-4.17V31.77a4.18,4.18,0,0,1,4.17-4.18H60.73a4.19,4.19,0,0,1,4.18,4.18v26.5A4.18,4.18,0,0,1,60.73,62.44Z" transform="translate(-23.62 -26.98)"/><path class="curve-3" d="M64.91,32.2H24.23V53.51H64.91Z" transform="translate(-23.62 -26.98)"/><path class="curve-4" d="M40.57,42.86V36.67L46,39.76l5.33,3.1L46,46l-5.4,3.1Z" transform="translate(-23.62 -26.98)"/><path class="curve-3" d="M28.26,58.34h23" transform="translate(-23.62 -26.98)"/><path class="curve-3" d="M54.54,58.34h1.65" transform="translate(-23.62 -26.98)"/><path class="curve-3" d="M59.29,58.34H61" transform="translate(-23.62 -26.98)"/></g></g></svg>
