<svg width="14" height="13" viewBox="0 0 14 13" fill="none" xmlns="http://www.w3.org/2000/svg">
<path d="M2.4 11.7C3.44934 11.7 4.3 11.1627 4.3 10.5C4.3 9.83726 3.44934 9.3 2.4 9.3C1.35066 9.3 0.5 9.83726 0.5 10.5C0.5 11.1627 1.35066 11.7 2.4 11.7Z" stroke="#EB5054" stroke-miterlimit="10" stroke-linecap="round" stroke-linejoin="round"/>
<path d="M11.5 9.4C12.5493 9.4 13.4 8.86274 13.4 8.2C13.4 7.53726 12.5493 7 11.5 7C10.4507 7 9.60001 7.53726 9.60001 8.2C9.60001 8.86274 10.4507 9.4 11.5 9.4Z" stroke="#EB5054" stroke-miterlimit="10" stroke-linecap="round" stroke-linejoin="round"/>
<path d="M4.2 10.5V2.3L13.4 0.5V8.2" stroke="#EB5054" stroke-miterlimit="10" stroke-linecap="round" stroke-linejoin="round"/>
<path d="M4.2 4.5L13.4 2.8" stroke="#EB5054" stroke-miterlimit="10" stroke-linecap="round" stroke-linejoin="round"/>
</svg>
